<?xml version="1.0" standalone="no"?><!DOCTYPE svg PUBLIC "-//W3C//DTD SVG 1.1//EN" "http://www.w3.org/Graphics/SVG/1.1/DTD/svg11.dtd"><svg t="1543829737869" class="icon" style="" viewBox="0 0 1024 1024" version="1.1" xmlns="http://www.w3.org/2000/svg" p-id="2596" xmlns:xlink="http://www.w3.org/1999/xlink" width="200" height="200"><defs><style type="text/css"></style></defs><path d="M999.006614 24.978939a85.313498 85.313498 0 0 0-120.633286 0L512.122481 391.82698 145.871634 24.978939A85.484125 85.484125 0 0 0 25.238348 146.124106L391.489195 512.119012 25.238348 878.113919A85.313498 85.313498 0 0 0 85.554991 1024a86.763827 86.763827 0 0 0 60.316643-24.740914L512.122481 632.411044l366.250847 366.848042a85.484125 85.484125 0 0 0 120.633286-121.145167L632.755767 512.119012l366.250847-365.994906a85.996006 85.996006 0 0 0 0-121.145167z" p-id="2597"></path></svg>